Coordinates
version=1
nRows=24
nColumns=24
inDegrees=yes

Units are S.I. units (second, meters, Newtons, ...)
Angles are in degrees.

endheader
time	pelvis_tilt	pelvis_list	pelvis_rotation	pelvis_tx	pelvis_ty	pelvis_tz	hip_flexion_r	hip_adduction_r	hip_rotation_r	knee_angle_r	ankle_angle_r	subtalar_angle_r	mtp_angle_r	hip_flexion_l	hip_adduction_l	hip_rotation_l	knee_angle_l	ankle_angle_l	subtalar_angle_l	mtp_angle_l	lumbar_extension	lumbar_bending	lumbar_rotation
      1.03633333	     -4.67857349	      0.74089649	      0.83148712	      0.50490940	      0.98891930	      0.31810831	     18.11981713	      2.90710411	      2.56155268	    -27.30494012	     17.33688965	     -8.86364151	     -4.37564870	     15.95325672	     -0.45922320	     -0.61704643	    -71.22968490	     -1.03569911	     -6.32679213	      4.69584211	     -6.53328219	      7.31639659	     -4.82068513
      1.04050000	     -4.59189971	      0.87289853	      0.70740326	      0.50941206	      0.99011224	      0.31850991	     17.51346217	      2.79952256	      2.63980141	    -26.82295227	     17.36056171	     -8.76209340	     -4.36487683	     16.49034161	     -0.39346159	     -0.83774146	    -71.11765248	     -0.32294698	     -6.18001944	      4.58622897	     -6.67585255	      7.10219313	     -4.52547361
      1.04466667	     -4.51312568	      1.01367197	      0.58106967	      0.51390506	      0.99125788	      0.31889473	     16.92063984	      2.67868069	      2.71780748	    -26.34803145	     17.38487856	     -8.66048466	     -4.35260894	     17.02700649	     -0.31647487	     -1.05523438	    -70.95980386	      0.37196322	     -6.03916393	      4.47107627	     -6.80725702	      6.88080509	     -4.22628414
      1.04883333	     -4.44647531	      1.16798510	      0.45188922	      0.51837934	      0.99235046	      0.31926137	     16.35167919	      2.53893927	      2.79207497	    -25.89049806	     17.40704178	     -8.54389242	     -4.33993520	     17.56858075	     -0.22244179	     -1.27178634	    -70.75576628	      1.05148331	     -5.91653980	      4.36344284	     -6.93113833	      6.64441670	     -3.94986512
      1.05300000	     -4.36504284	      1.29677739	      0.32516959	      0.52289573	      0.99345315	      0.31961594	     15.74840773	      2.42337009	      2.86443046	    -25.39469869	     17.42744693	     -8.44209722	     -4.32564048	     18.08121943	     -0.16275224	     -1.48413206	    -70.50565840	      1.69811038	     -5.78171127	      4.24401377	     -7.04671630	      6.44158832	     -3.64663597
      1.05716667	     -4.29144843	      1.43682312	      0.19304685	      0.52739136	      0.99450527	      0.31995021	     15.16325985	      2.29441433	      2.95157347	    -24.91461019	     17.43310638	     -8.34264650	     -4.30480491	     18.59200572	     -0.08550294	     -1.69161539	    -70.20763120	      2.31686855	     -5.68563121	      4.06384934	     -7.17294514	      6.24092492	     -3.31105162
      1.06133333	     -4.21344851	      1.57177197	      0.06363942	      0.53188097	      0.99550841	      0.32029286	     14.58008518	      2.16758679	      3.01875133	    -24.44457105	     17.45756742	     -8.24200647	     -4.28854309	     19.09337348	     -0.02103681	     -1.89915253	    -69.87830674	      2.92771885	     -5.56553787	      3.94203906	     -7.28407301	      6.01548755	     -3.07203335
      1.06550000	     -4.11992733	      1.70206135	     -0.06968545	      0.53638430	      0.99651505	      0.32060811	     13.97514221	      2.04166225	      3.09148112	    -23.96170955	     17.46775274	     -8.13926576	     -4.27127162	     19.56327098	      0.04197489	     -2.09896013	    -69.49728406	      3.50122737	     -5.48194655	      3.81407224	     -7.42070369	      5.81299120	     -2.78970133
      1.06966667	     -4.03726843	      1.83949997	     -0.20454786	      0.54088179	      0.99746352	      0.32090881	     13.38927581	      1.90557927	      3.16801463	    -23.49205614	     17.48203362	     -8.03312140	     -4.25349351	     20.03534028	      0.11425730	     -2.29463302	    -69.07568050	      4.03904448	     -5.41296665	      3.68515842	     -7.54471064	      5.60157361	     -2.50778109
      1.07383333	     -3.94537131	      1.97891425	     -0.34277663	      0.54538042	      0.99840381	      0.32119318	     12.79385029	      1.76330166	      3.24240393	    -23.01822882	     17.49295738	     -7.92261200	     -4.23484657	     20.48459729	      0.19191612	     -2.48374258	    -68.60528543	      4.53650421	     -5.37736498	      3.55225001	     -7.67848207	      5.39334241	     -2.22651465
      1.07800000	     -3.83791782	      2.10440362	     -0.47916327	      0.54988206	      0.99930839	      0.32145929	     12.18088750	      1.63257195	      3.31622051	    -22.54290451	     17.50508935	     -7.80984984	     -4.21706385	     20.90909715	      0.25675415	     -2.65930844	    -68.10322955	      5.01031082	     -5.35178039	      3.42813445	     -7.83110468	      5.20122378	     -1.96008827
      1.08216667	     -3.74392216	      2.24028274	     -0.62179330	      0.55439695	      1.00016047	      0.32171186	     11.58950879	      1.48644965	      3.38492493	    -22.08074790	     17.52630442	     -7.69430043	     -4.19818311	     21.33408378	      0.33460224	     -2.83216472	    -67.55520045	      5.43490870	     -5.35773715	      3.29828976	     -7.95899033	      4.99671901	     -1.67710916
      1.08633333	     -3.68244762	      2.36641471	     -0.76493555	      0.55889320	      1.00091086	      0.32194195	     11.04420730	      1.34715009	      3.44197630	    -21.63514080	     17.50024981	     -7.57042455	     -4.18885857	     21.78967005	      0.40464994	     -2.99621579	    -66.98151985	      5.85299479	     -5.41511261	      3.23317878	     -8.03827167	      4.82552535	     -1.50959677
      1.09050000	     -3.56066357	      2.49377392	     -0.90451802	      0.56341036	      1.00172588	      0.32215781	     10.41734728	      1.20460176	      3.52334508	    -21.16023739	     17.55864441	     -7.45492417	     -4.17110702	     22.16212900	      0.48664928	     -3.12844112	    -66.35388787	      6.19054374	     -5.42327654	      3.11341445	     -8.21854876	      4.62838804	     -1.15101111
      1.09466667	     -3.46950443	      2.60750002	     -1.04692347	      0.56793024	      1.00243821	      0.32237022	      9.83140419	      1.07301581	      3.58345677	    -20.69839621	     17.58399466	     -7.33619259	     -4.15269964	     22.56148794	      0.55001112	     -3.26076983	    -65.70334374	      6.51165709	     -5.48739631	      2.98562549	     -8.34050952	      4.44240097	     -0.85883529
      1.09883333	     -3.37736471	      2.73076293	     -1.18954570	      0.57244529	      1.00310850	      0.32255778	      9.25130574	      0.92714030	      3.64400187	    -20.24983981	     17.61360513	     -7.20945904	     -4.13610453	     22.94756570	      0.63282099	     -3.37429221	    -65.01232818	      6.80148517	     -5.56952411	      2.86751150	     -8.46672814	      4.26034516	     -0.59386342
      1.10300000	     -3.26700253	      2.85157667	     -1.33214787	      0.57696471	      1.00376904	      0.32271969	      8.65073289	      0.77801900	      3.69478707	    -19.79785601	     17.64518040	     -7.07379927	     -4.12046076	     23.30079358	      0.72020506	     -3.47064079	    -64.28232417	      7.05553094	     -5.67233188	      2.75574838	     -8.61544429	      4.08218626	     -0.33189354
      1.10716667	     -3.19268781	      2.97554695	     -1.47929266	      0.58148087	      1.00432969	      0.32285861	      8.09974084	      0.62293384	      3.74879517	    -19.36594364	     17.64435329	     -6.93255835	     -4.11027742	     23.68088305	      0.81695790	     -3.54998687	    -63.51816091	      7.29809964	     -5.78363492	      2.67690879	     -8.71844928	      3.92168809	     -0.10717570
      1.11133333	     -3.08654159	      3.06673905	     -1.61176230	      0.58599926	      1.00487475	      0.32299907	      7.50011087	      0.50106892	      3.79017593	    -18.90865952	     17.71352187	     -6.80564363	     -4.09610971	     24.02272435	      0.87941516	     -3.60525098	    -62.73591401	      7.47950310	     -5.91511449	      2.56950897	     -8.86523986	      3.75646432	      0.19979028
      1.11550000	     -2.99463297	      3.17393504	     -1.74963451	      0.59051781	      1.00536041	      0.32311337	      6.92680071	      0.35751509	      3.83155412	    -18.47201127	     17.75593326	     -6.66969189	     -4.08307607	     24.36315272	      0.96705022	     -3.64553791	    -61.91076410	      7.65003221	     -6.05080975	      2.46440052	     -8.99286296	      3.59474502	      0.46957934
      1.11966667	     -2.92062919	      3.29336090	     -1.88596033	      0.59504234	      1.00578559	      0.32319379	      6.38033834	      0.19544645	      3.86091051	    -18.04912531	     17.76502529	     -6.52566137	     -4.07503069	     24.70648934	      1.07678759	     -3.66575495	    -61.04206488	      7.79795972	     -6.19213773	      2.39452911	     -9.09283891	      3.43716740	      0.68342933
      1.12383333	     -2.80508529	      3.37220823	     -2.00900306	      0.59956490	      1.00621670	      0.32327421	      5.77059881	      0.07589711	      3.88538127	    -17.59224608	     17.84000486	     -6.39156304	     -4.06433849	     24.99948152	      1.14495941	     -3.65942252	    -60.15712127	      7.90025647	     -6.35107216	      2.30385775	     -9.25306076	      3.29532911	      0.97402787
      1.12800000	     -2.72422742	      3.46189169	     -2.13125807	      0.60408263	      1.00652981	      0.32332423	      5.21408109	     -0.05891334	      3.89950669	    -17.16800684	     17.88889242	     -6.25585869	     -4.05534102	     25.31715267	      1.23045990	     -3.63717035	    -59.24040543	      7.99048418	     -6.50439300	      2.22255318	     -9.36767441	      3.15543541	      1.22962461
      1.13216667	     -2.63654834	      3.54189373	     -2.24721965	      0.60860648	      1.00683388	      0.32335477	      4.64382565	     -0.18615651	      3.91491181	    -16.73022975	     17.89128966	     -6.12007858	     -4.05029068	     25.61089209	      1.31359196	     -3.58400235	    -58.28599609	      8.06653295	     -6.63761200	      2.16408008	     -9.48839785	      3.03630864	      1.44596415
